<svg xmlns="http://www.w3.org/2000/svg" viewBox="0 0 300 240" width="300" height="240">
  <defs>
    <linearGradient id="icon-gradient-dark" x1="146.79785" y1="209.5326" x2="137.51045" y2="36.47136" gradientUnits="userSpaceOnUse">
      <stop offset="0" stop-color="#c7d0d6" />
      <stop offset="1" stop-color="#f3f7fa" />
    </linearGradient>
  </defs>
  <path d="M102.54917,38.14755c1.97681,-0.10125 4.6686,-0.02813 6.69126,-0.02901l12.57993,-0.00352l11.04287,0.00132c2.08154,0.00103 4.2293,-0.0293 6.30352,0.05832c1.08281,0.09685 2.49844,0.27795 3.48809,0.73055c1.64048,0.76454 2.63042,2.00234 3.63633,3.44366c1.74595,2.50198 3.47739,5.00601 5.2103,7.51194l12.84521,18.55136l35.10352,50.36088l14.37598,20.69304c2.51221,3.61714 5.06689,7.23575 7.56006,10.86945c0.27539,0.40147 0.64453,0.84103 1.11621,0.98315l0.20947,-0.14799c0.28271,-0.67692 0.14502,-17.16147 0.14502,-19.11209l-0.01318,-60.30608l0.00293,-20.53934c0.00439,-3.04645 -0.04248,-6.11341 -0.02197,-9.15795c0.00879,-1.27604 0.22852,-2.33758 1.22314,-3.19927c0.59326,-0.51458 1.63916,-0.67751 2.41846,-0.70476c2.36719,-0.08293 4.80615,-0.04498 7.1792,-0.0441l13.80469,0.00864l12.43506,-0.01788c2.26758,-0.00484 4.54395,-0.03971 6.80273,0.0381c1.39893,-0.03678 3.12451,1.09582 3.1582,2.63062c0.26953,12.14256 0.1333,24.67385 0.12891,36.78784l-0.00586,67.58549l0.00146,37.46667l0.00879,11.37875c0.00586,2.12747 0.0791,4.32381 -0.05127,6.44103c-0.15381,2.45861 -2.13135,3.00366 -4.17773,3.01832c-4.94971,0.03663 -9.89209,0.01905 -14.83594,0.01758l-29.03027,-0.00733l-14.02441,0.00879c-1.86621,0.0044 -6.35889,0.12454 -7.98926,-0.20806c-1.38135,-0.29597 -2.65723,-0.95531 -3.69727,-1.91062c-1.3125,-1.21172 -6.01904,-8.80733 -7.36963,-10.89524l-69.13652,-106.30901l-38.93657,84.17128l-10.2665,22.18168c-1.69512,3.67179 -3.3293,7.6381 -5.36851,11.09158c-1.44229,2.44396 -6.87495,1.89451 -9.38921,1.88718l-10.8145,-0.01905l-17.84956,0.01612c-3.09492,0.00293 -6.23071,0.0674 -9.32036,-0.02784c-3.19619,-0.09817 -4.04388,-2.74725 -2.72344,-5.36264l21.64614,-41.90037l37.94927,-73.20864l15.73901,-30.28615c1.60635,-3.0715 3.25356,-6.17099 4.84453,-9.24806c1.76982,-3.423 3.39683,-4.89495 7.37168,-5.28835z" fill="url(#icon-gradient-dark)"/>
</svg>
